<svg xmlns="http://www.w3.org/2000/svg" width="1920" height="282" viewBox="0 0 1920 282">
  <defs>
    <style>
      .cls-1 {
        fill: #39446d;
        fill-rule: evenodd;
      }
    </style>
  </defs>
  <path id="Forme_1" data-name="Forme 1" class="cls-1" d="M101,0c52.815-.915,91.75,24.827,104,64L148,86c-10.625-20.511-55.731-32.011-73-9-7.85,10.459-10.684,98.4-5,118,10.222,35.251,64.439,21.7,76-3l60,29c-14.732,28.014-42.943,56.115-82,59L0,109C-9.73,84.535,13.268,44.741,21,35,33.318,19.482,57.017,8.508,79,3ZM329,0c61.769-.983,107.144,24.107,120,72,5.6,20.868,2,51.738,2,76,0,25.037,2.233,53.669-5,72-15.49,39.256-51.206,54.433-99,62-57.4,9.089-108.5-31.41-120-70-6.019-20.206-3-50.317-3-75,0-28.863-1.441-58.67,7-79,11.07-26.661,37.983-44.215,67-53ZM1565,0c63.23-1,109.72,25.138,121,76q0.495,37,1,74c0,27.744,1.29,55.943-7,75-15.64,35.961-51.9,49.86-97,57-22.15,3.506-45.56-4.141-60-10-54.11-21.953-63-55.863-63-133,0-23.043-2.6-50.141,3-69,10.14-34.145,37-54.725,71-65ZM487,4c48.549-.735,117.243-7.438,153,8,49.124,21.21,61.621,82.994,19,120q0.5,1,1,2c45.39,15.492,45.851,95.491,11,123-36.737,29-118.49,21.594-184,21V4ZM728,4c74.46-1.083,160.861-8.892,193,33,33.128,43.181,18.357,136.266-35,146l68,88,2-1q46-132.987,92-266l64,1,97,273h-75q-8.505-27.5-17-55h-73q-8.505,27.5-17,55H913c-12.952,0-32.5,2.286-42-2L728,78V4Zm499,0c47.02-.729,114.45-7.671,150,7,48.7,20.1,66.87,84.023,21,121,0.67,0.333,1.33.667,2,1,11.13,10.9,24.49,17.286,31,33,6.75,16.294,5.59,40.946,0,57-18.62,53.422-66.68,55-139,55l-66-1Q1226.495,140.513,1227,4Zm478,0h215V70h-72V278q-35.49-48.495-71-97V70h-72V4ZM557,63v48c28.961,1.028,74.536,5.253,65-31C616.426,58.809,584.186,62.047,557,63Zm739,0v48c29,1,69.35,5,66-26C1359.09,58.072,1326.11,61.984,1296,63ZM326,64c-12.946,5.9-25.819,7.609-31,21q-0.5,25-1,50c0,48.695-5.243,93.339,54,82,12.013-2.3,25.793-7.789,31-17,5.281-9.342,6.7-100.287,2-114C374.594,67.3,352.213,63.366,326,64Zm1236,0c-12.72,5.8-26.19,7.613-31,21q-0.495,25.5-1,51c0,48.742-4.85,91.805,54,81,12.31-2.26,25.57-7.754,31-17,5.07-8.636,6.66-101.007,2-114C1610.28,67.254,1588.49,63.359,1562,64ZM798,69v62c34.153,1.05,78.9,3.72,73-34C866.105,65.687,834.776,67.9,798,69Zm281,13q-9.495,39.5-19,79h40v-1C1095.84,146.425,1086.94,87.573,1079,82ZM557,161v56c33.592,1.084,66.749,3.757,71-25C633.146,157.192,588.808,160,557,161Zm739,0v56c31.66,1.024,79.18,4.382,71-33C1361.23,157.616,1328.79,159.961,1296,161Z"/>
</svg>
