<?xml version="1.0" encoding="UTF-8" standalone="no"?>
<svg
   xmlns:dc="http://purl.org/dc/elements/1.1/"
   xmlns:cc="http://creativecommons.org/ns#"
   xmlns:rdf="http://www.w3.org/1999/02/22-rdf-syntax-ns#"
   xmlns:svg="http://www.w3.org/2000/svg"
   xmlns="http://www.w3.org/2000/svg"
   xmlns:xlink="http://www.w3.org/1999/xlink"
   xmlns:sodipodi="http://sodipodi.sourceforge.net/DTD/sodipodi-0.dtd"
   xmlns:inkscape="http://www.inkscape.org/namespaces/inkscape"
   height="48"
   viewBox="0 0 48 48"
   width="48"
   version="1.1"
   id="svg909"
   sodipodi:docname="steam.svg"
   inkscape:version="0.92.4 (5da689c313, 2019-01-14)">
  <metadata
     id="metadata913">
    <rdf:RDF>
      <cc:Work
         rdf:about="">
        <dc:format>image/svg+xml</dc:format>
        <dc:type
           rdf:resource="http://purl.org/dc/dcmitype/StillImage" />
      </cc:Work>
    </rdf:RDF>
  </metadata>
  <sodipodi:namedview
     pagecolor="#ffffff"
     bordercolor="#666666"
     borderopacity="1"
     objecttolerance="10"
     gridtolerance="10"
     guidetolerance="10"
     inkscape:pageopacity="0"
     inkscape:pageshadow="2"
     inkscape:window-width="1366"
     inkscape:window-height="705"
     id="namedview911"
     showgrid="false"
     inkscape:zoom="11.208333"
     inkscape:cx="24"
     inkscape:cy="42.03992"
     inkscape:window-x="-8"
     inkscape:window-y="-8"
     inkscape:window-maximized="1"
     inkscape:current-layer="svg909" />
  <defs
     id="defs881">
    <linearGradient
       id="a">
      <stop
         offset="0"
         stop-color="#31363b"
         stop-opacity=".208"
         id="stop865" />
      <stop
         offset="1"
         stop-color="#31363b"
         stop-opacity="0"
         id="stop867" />
    </linearGradient>
    <linearGradient
       id="b"
       gradientUnits="userSpaceOnUse"
       x1="31.969"
       x2="45.969"
       xlink:href="#a"
       y1="1021.361953"
       y2="1035.361953" />
    <linearGradient
       id="c"
       gradientUnits="userSpaceOnUse"
       x1="36"
       x2="49"
       xlink:href="#a"
       y1="13.9998"
       y2="26.9998" />
    <linearGradient
       id="d"
       gradientUnits="userSpaceOnUse"
       x1="5.725"
       x2="18.725"
       xlink:href="#a"
       y1="29.2958"
       y2="42.2958" />
    <linearGradient
       id="e"
       gradientUnits="userSpaceOnUse"
       x1="24"
       x2="24"
       y1="1008.362"
       y2="1048.362">
      <stop
         offset="0"
         stop-color="#054e87"
         id="stop873" />
      <stop
         offset="1"
         stop-color="#1d99f3"
         id="stop875" />
    </linearGradient>
    <linearGradient
       id="f"
       gradientUnits="userSpaceOnUse"
       x1="27.06333"
       x2="41.94733"
       xlink:href="#a"
       y1="1019.461516"
       y2="1031.848516" />
    <linearGradient
       id="g"
       gradientUnits="userSpaceOnUse"
       x1="14.755253"
       x2="29.639253"
       xlink:href="#a"
       y1="1032.123147"
       y2="1044.510147" />
    <linearGradient
       id="h"
       gradientUnits="userSpaceOnUse"
       x1="19.098692"
       x2="33.098692"
       xlink:href="#a"
       y1="1034.192127"
       y2="1048.192127" />
  </defs>
  <g
     transform="matrix(1.1962825,0,0,1.1962825,-4.7107807,-1206.2118)"
     id="g907">
    <circle
       cx="24"
       cy="1028.3621"
       r="20"
       id="circle883"
       style="fill:url(#e)" />
    <g
       id="g897"
       style="fill-rule:evenodd">
      <path
         d="m 26.586,1028.0254 8.104641,-0.4201 1.91027,-6.7552 -5.59099,-4.4419 -6.871493,5.8329 z"
         id="path885"
         style="fill:url(#f)"
         inkscape:connector-curvature="0" />
      <path
         d="M 31.027515,1028.3568 35,1027.3622 l 1.976562,-2.9766 -4,-4 -4.949047,4.9712 z"
         id="path887"
         style="fill:url(#b)"
         inkscape:connector-curvature="0" />
      <path
         d="M 35.923828,13.330078 C 37.206994,14.675942 38,16.493653 38,18.5 c -10e-7,4.142136 -3.357865,7.5 -7.5,7.5 -0.203438,-0.0015 -0.406734,-0.01127 -0.609375,-0.0293 l -5.896484,5.111328 c -0.0083,0.739616 -0.153346,1.471317 -0.427735,2.158203 -1.23712,3.074359 -4.732395,4.563589 -7.80664,3.326172 -0.24293,-0.09775 -0.470788,-0.215212 -0.69336,-0.339844 -0.04331,-0.0244 -0.08621,-0.04875 -0.128906,-0.07422 -0.211403,-0.125374 -0.414371,-0.260582 -0.605469,-0.408203 -0.0063,-0.0049 -0.01326,-0.0088 -0.01953,-0.01367 l -0.01172,0.002 8.19336,8.193359 C 22.994984,43.969391 23.497293,43.994196 24,44 a 20,20 0 0 0 1.310547,-0.04687 c 0.06663,-0.0043 0.132772,-0.01066 0.199219,-0.01563 a 20,20 0 0 0 1.845703,-0.222656 c 0.03199,-0.0054 0.06377,-0.01202 0.0957,-0.01758 a 20,20 0 0 0 1.396484,-0.3125 c 0.240477,-0.05998 0.481808,-0.116947 0.71875,-0.185547 A 20,20 0 0 0 30.7832,42.79492 c 0.221103,-0.07984 0.444706,-0.154851 0.662109,-0.242188 a 20,20 0 0 0 1.148441,-0.51367 C 32.813074,41.93437 33.035177,41.835015 33.25,41.722656 a 20,20 0 0 0 1.03125,-0.591797 c 0.231705,-0.139379 0.46789,-0.271541 0.693359,-0.419921 a 20,20 0 0 0 0.953125,-0.685547 c 0.206289,-0.153802 0.419094,-0.299475 0.619141,-0.460938 a 20,20 0 0 0 0.908203,-0.796875 c 0.190109,-0.173313 0.387023,-0.339092 0.570313,-0.519531 a 20,20 0 0 0 0.833984,-0.892578 c 0.163426,-0.181706 0.335418,-0.355335 0.492187,-0.542969 a 20,20 0 0 0 0.863282,-1.136719 c 0.102363,-0.141895 0.215754,-0.275269 0.314453,-0.419922 a 20,20 0 0 0 3.371094,-9.257812 c 6.3e-5,-6.43e-4 -6.4e-5,-0.0013 0,-0.002 a 20,20 0 0 0 0,-0.0059 A 20,20 0 0 0 44,24 20,20 0 0 0 43.779297,21.185547 Z"
         transform="translate(0,1004.3622)"
         id="path889"
         style="fill:url(#c)"
         inkscape:connector-curvature="0" />
      <path
         d="m 15.316486,1040.0683 6.358971,-0.6411 1.357843,-7.5507 -6.629553,-1.7681 -3.799998,4.5733 z"
         id="path891"
         style="fill:url(#g)"
         inkscape:connector-curvature="0" />
      <path
         d="m 16.985332,1040.2339 3.972485,-0.4165 2.210937,-3.4453 -3.0625,-3.1563 -6.933422,3.9868 z"
         id="path893"
         style="fill:url(#h)"
         inkscape:connector-curvature="0" />
      <path
         d="M 5.7695312,29.3125 19.363281,43.431641 a 20,20 0 0 0 3.13086,0.49414 l -8.19336,-8.193359 -2.001953,-4.97461 z"
         transform="translate(0,1004.3622)"
         id="path895"
         style="fill:url(#d)"
         inkscape:connector-curvature="0" />
    </g>
    <g
       id="g905"
       style="fill:#ffffff">
      <path
         d="m 30.5,11 c -4.142135,0 -7.499999,3.357864 -7.5,7.5 0.0017,0.201484 0.01143,0.402819 0.0293,0.603516 -1.289636,1.575722 -4.80544,5.546997 -5.113281,5.902343 -2.416761,0.03284 -4.577852,1.51258 -5.482422,3.753907 -1.237432,3.074241 0.2518,6.569519 3.326172,7.80664 3.074245,1.237417 6.56952,-0.251813 7.80664,-3.326172 0.274389,-0.686886 0.419405,-1.418587 0.427735,-2.158203 l 5.896484,-5.111328 C 30.093269,25.98873 30.296562,25.998503 30.5,26 34.642135,26 37.999999,22.642136 38,18.5 37.999999,14.357864 34.642135,11 30.5,11 Z m 0,3 c 2.48528,0 4.499999,2.014718 4.5,4.5 -10e-7,2.485282 -2.01472,4.5 -4.5,4.5 -2.48528,0 -4.499999,-2.014718 -4.5,-4.5 1e-6,-2.485282 2.01472,-4.5 4.5,-4.5 z M 18.046875,27 c 0.496175,0.0058 0.986949,0.103774 1.447266,0.289062 2.049689,0.825003 3.042263,3.155585 2.216797,5.205079 -0.825003,2.049668 -3.155579,3.04224 -5.205079,2.216797 C 14.45617,33.885935 13.463596,31.555353 14.289062,29.505859 14.905127,27.975627 16.397393,26.980525 18.046875,27 Z"
         transform="translate(0,1004.3622)"
         id="path899"
         inkscape:connector-curvature="0" />
      <circle
         cx="30.5"
         cy="1022.862"
         id="ellipse901"
         r="3.5" />
      <path
         d="M 5.0722656,22.564453 A 19,19 0 0 0 5,24 19,19 0 0 0 5.7695312,29.3125 l 11.1113278,4.470703 a 3,3 0 0 0 3.902344,-1.664062 3,3 0 0 0 -1.664062,-3.902344 z"
         transform="translate(0,1004.3622)"
         id="path903"
         inkscape:connector-curvature="0" />
    </g>
  </g>
</svg>
